<?xml version="1.0" encoding="UTF-8"?>
<svg id="Ebene_1" data-name="Ebene 1" xmlns="http://www.w3.org/2000/svg" viewBox="0 0 259 259">
  <defs>
    <style>
      .cls-1 {
        fill: #1ed760;
      }
    </style>
  </defs>
  <g>
    <rect class="cls-1" x="66.98" y="140.4" width="125.32" height="12.62"/>
    <rect class="cls-1" x="66.98" y="180.98" width="125.32" height="12.62"/>
    <path class="cls-1" d="M117.12,80.22h52.87c5.23,0,9.47,4.24,9.47,9.47s-4.24,9.47-9.47,9.47h-60.26c-3.95,5.77-9.21,10.57-15.35,13.97h74.7c12.95,0,23.44-10.5,23.44-23.44s-10.5-23.44-23.44-23.44h-52.14c.41,2.44,.64,4.95,.64,7.51,0,2.19-.17,4.35-.47,6.46Z"/>
  </g>
  <path class="cls-1" d="M86.96,81.58c-2.06,0-3.92,.82-5.3,2.14l-20.22-11.56c.18-.64,.27-1.32,.27-2.02s-.1-1.42-.29-2.09l20.11-11.67c1.38,1.41,3.31,2.28,5.43,2.28,4.21,0,7.62-3.41,7.62-7.62s-3.41-7.62-7.62-7.62-7.62,3.41-7.62,7.62c0,.72,.1,1.42,.29,2.08l-20.11,11.68c-1.38-1.4-3.3-2.27-5.43-2.27-4.21,0-7.62,3.41-7.62,7.62s3.41,7.62,7.62,7.62c2.15,0,4.09-.89,5.48-2.32l20.12,11.5c-.22,.72-.34,1.48-.34,2.26,0,4.21,3.41,7.62,7.62,7.62s7.62-3.41,7.62-7.62-3.41-7.62-7.62-7.62Z"/>
</svg>