<?xml version="1.0" encoding="UTF-8"?>
<svg id="Rün" xmlns="http://www.w3.org/2000/svg" viewBox="0 0 675.83 590.55">
  <defs>
    <style>
      .cls-1 {
        fill: #fff;
      }

      .cls-2 {
        stroke: #1ed760;
        stroke-miterlimit: 10;
        stroke-width: 5px;
      }

      .cls-2, .cls-3 {
        fill: #1ed760;
      }
    </style>
  </defs>
  <g>
    <path class="cls-2" d="M78.39,502.98c0-5.52-1.94-9.77-5.82-12.76-3.88-2.99-10.88-6.01-20.99-9.05-10.12-3.05-18.16-6.44-24.14-10.17-11.44-7.19-17.16-16.55-17.16-28.11,0-10.12,4.12-18.45,12.37-25,8.25-6.55,18.95-9.83,32.12-9.83,8.74,0,16.52,1.61,23.37,4.83,6.84,3.22,12.21,7.8,16.12,13.75,3.76,5.72,5.71,12.05,5.85,18.97,0,.45-.36,.82-.81,.82h-20.12c-.44,0-.78-.35-.79-.79-.16-6.18-2.21-11.04-6.15-14.6-4.11-3.71-9.99-5.56-17.63-5.56-7.13,0-12.66,1.52-16.6,4.57-3.94,3.05-5.91,7.3-5.91,12.76,0,4.6,2.12,8.44,6.38,11.51,4.25,3.08,11.26,6.07,21.04,8.97,9.77,2.9,17.62,6.21,23.54,9.92,5.92,3.71,10.26,7.96,13.02,12.76,2.76,4.8,4.14,10.42,4.14,16.86,0,10.46-4.01,18.78-12.03,24.96-8.02,6.18-18.9,9.27-32.63,9.27-9.08,0-17.43-1.68-25.05-5.04-7.62-3.36-13.54-8-17.76-13.92-4.08-5.71-6.19-12.34-6.33-19.87,0-.45,.36-.82,.81-.82H27.42c.44,0,.79,.35,.8,.79,.17,6.75,2.52,12,7.06,15.76,4.71,3.91,11.47,5.86,20.26,5.86,7.59,0,13.29-1.54,17.11-4.61,3.82-3.07,5.73-7.14,5.73-12.2Z"/>
    <path class="cls-2" d="M137.97,449.12c0,1.09,1.31,1.61,2.08,.84,6.49-6.44,14.44-9.67,23.87-9.67,19.89,0,29.97,11.35,30.26,34.06v59.75c0,.67-.54,1.21-1.21,1.21h-18.53c-.67,0-1.21-.54-1.21-1.21v-58.97c0-6.44-1.39-10.99-4.18-13.67-2.79-2.67-6.89-4.01-12.29-4.01-8.29,0-14.49,3.64-18.63,10.92-.11,.19-.16,.4-.16,.62v65.11c0,.67-.54,1.21-1.21,1.21h-18.53c-.67,0-1.21-.54-1.21-1.21v-130.02c0-.67,.54-1.21,1.21-1.21h18.53c.67,0,1.21,.54,1.21,1.21v45.04Z"/>
    <path class="cls-2" d="M270.75,534.58c-.6-1.4-1.16-3.32-1.65-5.76-.19-.93-1.31-1.29-2-.65-6.36,5.91-13.99,8.87-22.9,8.87-9.37,0-17.02-2.67-22.93-8.02-5.92-5.35-8.88-11.95-8.88-19.83,0-9.94,3.69-17.57,11.08-22.89,7.38-5.32,17.95-7.98,31.69-7.98h11.64c.67,0,1.21-.54,1.21-1.21v-4.91c0-4.83-1.35-8.69-4.05-11.6-2.7-2.9-6.81-4.35-12.33-4.35-4.77,0-8.68,1.19-11.73,3.58-2.74,2.15-4.25,4.82-4.52,8.01-.05,.62-.58,1.08-1.2,1.08h-18.56c-.68,0-1.25-.56-1.21-1.24,.25-4.65,1.94-9.02,5.05-13.11,3.39-4.45,8-7.95,13.84-10.48,5.83-2.53,12.34-3.79,19.53-3.79,10.92,0,19.63,2.75,26.12,8.23,6.5,5.49,9.83,13.21,10,23.15v42.08c0,8.27,1.14,14.88,3.43,19.86,.07,.15,.11,.32,.11,.49h0c0,.67-.54,1.21-1.21,1.21h-19.4c-.49,0-.92-.29-1.12-.74Zm-22.67-14.35c4.14,0,8.03-1,11.68-3.02,3.55-1.95,6.24-4.56,8.08-7.82,.1-.19,.16-.4,.16-.61v-16.05c0-.67-.54-1.21-1.21-1.21h-10.09c-7.76,0-13.59,1.35-17.5,4.05-3.91,2.7-5.86,6.52-5.86,11.47,0,4.02,1.34,7.23,4.01,9.61,2.67,2.39,6.25,3.58,10.73,3.58Z"/>
    <path class="cls-2" d="M359.73,459.77c0,.74-.66,1.29-1.39,1.19-2.33-.32-4.71-.48-7.16-.48-9.49,0-15.92,3.59-19.28,10.78-.08,.17-.12,.35-.12,.53v62.32c0,.67-.54,1.21-1.21,1.21h-18.53c-.67,0-1.21-.54-1.21-1.21v-90.87c0-.67,.54-1.21,1.21-1.21h17.64c.64,0,1.18,.51,1.21,1.15l.29,5.76c.06,1.12,1.47,1.56,2.16,.68,4.85-6.21,11.21-9.31,19.06-9.31,2.57,0,4.75,.3,6.56,.89,.51,.17,.86,.63,.85,1.16l-.08,17.41Z"/>
    <path class="cls-2" d="M414.05,537.04c-13.28,0-24.04-4.18-32.29-12.55-8.25-8.36-12.37-19.5-12.37-33.41v-2.59c0-9.31,1.8-17.63,5.39-24.96,3.59-7.33,8.63-13.03,15.13-17.11,6.5-4.08,13.74-6.12,21.73-6.12,12.7,0,22.52,4.05,29.44,12.16,6.93,8.1,10.39,19.57,10.39,34.4v7.24c0,.67-.54,1.21-1.21,1.21h-58.41c-.72,0-1.29,.62-1.21,1.34,.81,7.08,3.34,12.72,7.59,16.94,4.51,4.48,10.19,6.73,17.03,6.73,9.17,0,16.71-3.54,22.63-10.62,.45-.54,1.26-.6,1.77-.12l9.59,9.16c.43,.41,.51,1.09,.16,1.58-3.67,5.16-8.45,9.2-14.37,12.12-6.24,3.07-13.23,4.61-20.99,4.61Zm-2.5-79.93c-5.75,0-10.39,2.01-13.92,6.04-3.3,3.76-5.49,8.9-6.56,15.42-.12,.73,.46,1.39,1.2,1.39h37.3c.67,0,1.21-.54,1.21-1.21v-.29s0-.07,0-.1c-.47-6.99-2.33-12.27-5.6-15.86-3.28-3.59-7.82-5.39-13.62-5.39Z"/>
    <path class="cls-2" d="M463.79,487.98c0-14.37,3.33-25.91,10-34.62,6.67-8.71,15.61-13.06,26.81-13.06,8.81,0,16.11,2.74,21.91,8.22,.78,.74,2.06,.21,2.06-.86v-43.57c0-.67,.54-1.21,1.21-1.21h18.53c.67,0,1.21,.54,1.21,1.21v130.02c0,.67-.54,1.21-1.21,1.21h-16.67c-.62,0-1.14-.47-1.2-1.08l-.63-5.87c-.11-1.03-1.36-1.44-2.08-.69-6.04,6.25-13.8,9.37-23.3,9.37-10.92,0-19.76-4.4-26.51-13.19-6.76-8.79-10.13-20.75-10.13-35.87Zm20.95,1.81c0,9.48,1.82,16.89,5.47,22.2,3.65,5.32,8.84,7.98,15.56,7.98,8.46,0,14.68-3.73,18.65-11.19,.1-.18,.15-.38,.15-.59v-39.22c0-.2-.05-.41-.14-.58-3.86-7.29-10.02-10.93-18.48-10.93-6.78,0-12.02,2.69-15.69,8.06-3.68,5.38-5.52,13.46-5.52,24.27Z"/>
    <path class="cls-2" d="M669.17,475.82c0,11.9-1.88,22.2-5.65,30.91-3.54,8.18-8.41,14.77-14.6,19.79-.61,.49-.62,1.42,0,1.9l19.2,14.98c.59,.46,.62,1.35,.07,1.85l-12.31,11.11c-.44,.4-1.1,.42-1.56,.05l-25.49-20.15c-.28-.22-.63-.3-.97-.23-3.35,.67-6.94,1.01-10.76,1.01-10.12,0-19.16-2.49-27.12-7.46-7.96-4.97-14.11-12.06-18.45-21.25-4.34-9.2-6.54-19.8-6.6-31.82v-7.07c0-12.24,2.17-23.05,6.51-32.42,4.34-9.37,10.46-16.54,18.36-21.51,7.9-4.97,16.94-7.46,27.12-7.46s19.47,2.46,27.37,7.37c7.9,4.91,14.01,11.98,18.32,21.21,4.31,9.23,6.5,19.96,6.55,32.2v6.98Zm-21.9-6.55c0-14.14-2.64-24.86-7.93-32.16-5.29-7.3-12.76-10.95-22.42-10.95s-16.71,3.69-22.03,11.08c-5.32,7.39-8.03,17.8-8.15,31.25v7.33c0,13.57,2.66,24.17,7.98,31.82,5.31,7.64,12.77,11.47,22.37,11.47s17.17-3.68,22.37-11.04c5.2-7.36,7.8-18.11,7.8-32.25v-6.55Z"/>
  </g>
  <g>
    <path class="cls-3" d="M448.1,61.04c-36.85-.32-69.39,18.2-88.59,46.51-3.79,5.58-10.91,7.83-17.21,5.42l-79.02-30.15c-5.72-2.18-9.43-7.71-9.35-13.83,0-.29,0-.59,0-.88C253.94,30.79,222.84,.75,185.14,2.48c-33.66,1.55-60.97,28.87-62.52,62.52-1.73,37.69,28.31,68.8,65.63,68.8,19.75,0,37.45-8.72,49.49-22.51,4.05-4.65,10.51-6.38,16.27-4.18l79.03,30.15c6.3,2.4,10.11,8.83,9.22,15.51-.62,4.62-.94,9.33-.94,14.12,0,6.19,.53,12.25,1.55,18.15,1.15,6.67-2.38,13.26-8.6,15.91l-16.14,6.89c-5.62,2.4-12.13,1.02-16.31-3.44-12.31-13.1-29.92-21.16-49.42-20.71-34.62,.79-62.98,28.85-64.12,63.46-1.25,37.95,29.69,68.98,67.6,67.89,34.79-1,63.05-29.53,63.74-64.33,.03-1.58,0-3.16-.07-4.71-.31-6.14,3.15-11.84,8.8-14.25l16.13-6.89c6.16-2.63,13.37-.74,17.34,4.65,19.27,26.22,50.32,43.23,85.35,43.23,58.96,0,106.67-48.21,105.84-107.37-.8-57.24-47.68-103.85-104.92-104.34Z"/>
    <g>
      <rect class="cls-1" x="384.4" y="177.37" width="125.32" height="12.62" rx="6.31" ry="6.31"/>
      <rect class="cls-1" x="384.4" y="217.95" width="125.32" height="12.62" rx="6.31" ry="6.31"/>
      <path class="cls-1" d="M486.5,103.22h-3.96s-48.18,0-48.18,0h-26.52c-12.95,0-23.44,10.5-23.44,23.44,0,12.94,10.5,23.44,23.44,23.44h3.96s48.18,0,48.18,0h26.52c12.95,0,23.44-10.5,23.44-23.44,0-12.94-10.5-23.44-23.44-23.44Zm.91,32.91h-27.6s-.01,0-.01,0h-32.65s-20.22,0-20.22,0c-5.23,0-9.47-4.24-9.47-9.47s4.24-9.47,9.47-9.47h27.6s.01,0,.01,0h32.65s20.22,0,20.22,0c5.23,0,9.47,4.24,9.47,9.47,0,5.23-4.24,9.47-9.47,9.47Z"/>
    </g>
    <path class="cls-1" d="M253.94,243.63c-5.75,0-10.45-1.83-14.11-5.49s-5.49-8.36-5.49-14.11,1.83-10.45,5.49-14.11c3.66-3.66,8.36-5.49,14.11-5.49,5.75,0,10.45,1.83,14.11,5.49,3.66,3.66,5.49,8.36,5.49,14.11s-1.83,10.45-5.49,14.11-8.36,5.49-14.11,5.49Zm-32.39,41.95c-5.21,0-9.43-4.22-9.43-9.43v-2.85c0-3.31,.83-6.14,2.48-8.49,1.66-2.35,3.79-4.14,6.4-5.36,5.84-2.61,11.43-4.57,16.79-5.88,5.36-1.31,10.74-1.96,16.14-1.96,5.4,0,10.76,.68,16.07,2.03,5.31,1.35,10.89,3.29,16.73,5.82,2.7,1.22,4.88,3.01,6.53,5.36,1.66,2.35,2.48,5.18,2.48,8.49v2.85c0,5.21-4.22,9.43-9.43,9.43h-64.77Z"/>
    <path class="cls-1" d="M188.25,62.36c-5.75,0-10.45-1.83-14.11-5.49-3.66-3.66-5.49-8.36-5.49-14.11s1.83-10.45,5.49-14.11c3.66-3.66,8.36-5.49,14.11-5.49s10.45,1.83,14.11,5.49c3.66,3.66,5.49,8.36,5.49,14.11,0,5.75-1.83,10.45-5.49,14.11-3.66,3.66-8.36,5.49-14.11,5.49Zm-32.39,41.95c-5.21,0-9.43-4.22-9.43-9.43v-2.85c0-3.31,.83-6.14,2.48-8.49,1.66-2.35,3.79-4.14,6.4-5.36,5.84-2.61,11.43-4.57,16.79-5.88,5.36-1.31,10.74-1.96,16.14-1.96s10.76,.68,16.07,2.03c5.31,1.35,10.89,3.29,16.73,5.82,2.7,1.22,4.88,3.01,6.53,5.36,1.66,2.35,2.48,5.18,2.48,8.49v2.85c0,5.21-4.22,9.43-9.43,9.43h-64.77Z"/>
  </g>
</svg>