<?xml version="1.0" encoding="UTF-8"?>
<svg id="Rün" xmlns="http://www.w3.org/2000/svg" viewBox="0 0 1013.81 272.89">
  <defs>
    <style>
      .cls-1 {
        stroke: #1ed760;
        stroke-miterlimit: 10;
        stroke-width: 5px;
      }

      .cls-1, .cls-2 {
        fill: #1ed760;
      }
    </style>
  </defs>
  <g>
    <path class="cls-1" d="M396,166.6c0-5.74-2.02-10.17-6.06-13.28-4.04-3.11-11.32-6.25-21.85-9.42-10.53-3.17-18.91-6.7-25.13-10.59-11.91-7.48-17.86-17.23-17.86-29.26,0-10.53,4.29-19.21,12.88-26.03,8.58-6.82,19.73-10.23,33.43-10.23,9.09,0,17.2,1.68,24.32,5.03,7.12,3.35,12.71,8.12,16.78,14.31,3.91,5.96,5.95,12.54,6.09,19.74,0,.47-.38,.85-.84,.85h-20.95c-.45,0-.82-.37-.83-.82-.17-6.43-2.3-11.49-6.41-15.2-4.28-3.86-10.4-5.79-18.35-5.79-7.42,0-13.18,1.59-17.28,4.76-4.1,3.17-6.15,7.6-6.15,13.28,0,4.79,2.21,8.78,6.64,11.98,4.43,3.2,11.72,6.31,21.9,9.33,10.17,3.02,18.34,6.46,24.5,10.32,6.16,3.86,10.68,8.29,13.55,13.28,2.87,5,4.31,10.85,4.31,17.55,0,10.89-4.17,19.55-12.52,25.98-8.35,6.43-19.67,9.65-33.97,9.65-9.46,0-18.14-1.75-26.07-5.25-7.93-3.5-14.09-8.33-18.49-14.49-4.24-5.95-6.44-12.84-6.59-20.68,0-.47,.38-.86,.84-.86h21.04c.45,0,.82,.37,.83,.82,.18,7.02,2.63,12.49,7.35,16.41,4.9,4.07,11.94,6.1,21.09,6.1,7.9,0,13.83-1.6,17.81-4.8,3.98-3.2,5.97-7.43,5.97-12.7Z"/>
    <path class="cls-1" d="M458.02,110.54c0,1.13,1.36,1.67,2.16,.88,6.75-6.71,15.03-10.06,24.85-10.06,20.7,0,31.2,11.82,31.5,35.45v62.19c0,.7-.56,1.26-1.26,1.26h-19.29c-.7,0-1.26-.56-1.26-1.26v-61.38c0-6.7-1.45-11.44-4.35-14.22-2.9-2.78-7.17-4.17-12.79-4.17-8.62,0-15.09,3.79-19.4,11.37-.11,.19-.17,.42-.17,.64v67.77c0,.7-.56,1.26-1.26,1.26h-19.29c-.7,0-1.26-.56-1.26-1.26V63.66c0-.7,.56-1.26,1.26-1.26h19.29c.7,0,1.26,.56,1.26,1.26v46.88Z"/>
    <path class="cls-1" d="M596.23,199.49c-.63-1.46-1.2-3.46-1.72-5.99-.2-.96-1.36-1.35-2.08-.68-6.62,6.15-14.57,9.23-23.83,9.23-9.75,0-17.71-2.78-23.87-8.35-6.16-5.56-9.24-12.44-9.24-20.64,0-10.35,3.84-18.29,11.53-23.83,7.69-5.53,18.68-8.3,32.98-8.3h12.11c.7,0,1.26-.56,1.26-1.26v-5.11c0-5.03-1.41-9.05-4.22-12.07-2.81-3.02-7.09-4.53-12.83-4.53-4.97,0-9.03,1.24-12.21,3.72-2.86,2.24-4.42,5.02-4.71,8.34-.05,.64-.6,1.13-1.25,1.13h-19.32c-.71,0-1.3-.59-1.26-1.29,.26-4.84,2.02-9.39,5.26-13.65,3.53-4.64,8.33-8.27,14.4-10.9,6.07-2.63,12.85-3.95,20.33-3.95,11.37,0,20.43,2.86,27.19,8.57,6.76,5.71,10.23,13.75,10.41,24.1v43.8c0,8.6,1.19,15.49,3.57,20.67,.07,.16,.11,.33,.11,.51h0c0,.7-.56,1.26-1.26,1.26h-20.2c-.51,0-.96-.3-1.16-.77Zm-23.6-14.94c4.31,0,8.36-1.05,12.16-3.14,3.69-2.03,6.49-4.75,8.41-8.14,.11-.19,.16-.41,.16-.64v-16.71c0-.7-.56-1.26-1.26-1.26h-10.5c-8.08,0-14.15,1.41-18.22,4.22-4.07,2.81-6.1,6.79-6.1,11.94,0,4.19,1.39,7.52,4.17,10.01,2.78,2.48,6.51,3.72,11.17,3.72Z"/>
    <path class="cls-1" d="M688.85,121.62c0,.77-.68,1.34-1.44,1.24-2.42-.33-4.9-.5-7.45-.5-9.88,0-16.57,3.74-20.07,11.22-.08,.17-.12,.36-.12,.56v64.86c0,.7-.56,1.26-1.26,1.26h-19.29c-.7,0-1.26-.56-1.26-1.26V104.41c0-.7,.56-1.26,1.26-1.26h18.36c.67,0,1.22,.53,1.26,1.2l.3,6c.06,1.16,1.53,1.62,2.24,.71,5.05-6.46,11.66-9.7,19.83-9.7,2.67,0,4.95,.31,6.82,.93,.53,.17,.89,.66,.89,1.21l-.08,18.13Z"/>
    <path class="cls-1" d="M745.39,202.05c-13.82,0-25.03-4.35-33.61-13.06-8.59-8.71-12.88-20.3-12.88-34.78v-2.69c0-9.69,1.87-18.35,5.61-25.98,3.74-7.63,8.99-13.57,15.75-17.81,6.76-4.25,14.3-6.37,22.62-6.37,13.22,0,23.44,4.22,30.65,12.65,7.21,8.44,10.81,20.37,10.81,35.81v7.54c0,.7-.56,1.26-1.26,1.26h-60.8c-.75,0-1.34,.65-1.26,1.39,.84,7.36,3.47,13.24,7.9,17.64,4.7,4.67,10.6,7,17.72,7,9.54,0,17.39-3.68,23.55-11.05,.47-.56,1.31-.63,1.84-.12l9.99,9.53c.45,.43,.53,1.13,.17,1.64-3.82,5.37-8.8,9.58-14.95,12.61-6.49,3.2-13.78,4.8-21.85,4.8Zm-2.6-83.19c-5.98,0-10.81,2.1-14.49,6.28-3.44,3.91-5.71,9.26-6.83,16.05-.12,.76,.48,1.45,1.25,1.45h38.83c.7,0,1.26-.56,1.26-1.26v-.31s0-.07,0-.1c-.49-7.27-2.43-12.78-5.83-16.51-3.41-3.74-8.14-5.61-14.18-5.61Z"/>
    <path class="cls-1" d="M797.17,150.99c0-14.96,3.47-26.97,10.41-36.03,6.94-9.06,16.24-13.6,27.91-13.6,9.17,0,16.77,2.85,22.81,8.55,.81,.77,2.14,.22,2.14-.89V63.66c0-.7,.56-1.26,1.26-1.26h19.29c.7,0,1.26,.56,1.26,1.26V199c0,.7-.56,1.26-1.26,1.26h-17.35c-.64,0-1.18-.49-1.25-1.12l-.65-6.11c-.11-1.07-1.42-1.5-2.17-.72-6.28,6.5-14.37,9.76-24.25,9.76-11.37,0-20.57-4.58-27.6-13.73-7.03-9.15-10.55-21.6-10.55-37.33Zm21.81,1.88c0,9.87,1.9,17.58,5.7,23.11,3.8,5.53,9.2,8.3,16.2,8.3,8.81,0,15.28-3.88,19.41-11.65,.1-.19,.15-.4,.15-.61v-40.82c0-.21-.05-.42-.15-.61-4.02-7.59-10.43-11.38-19.24-11.38-7.06,0-12.51,2.8-16.33,8.39-3.83,5.6-5.74,14.02-5.74,25.26Z"/>
    <path class="cls-1" d="M1010.95,138.33c0,12.38-1.96,23.11-5.88,32.17-3.68,8.51-8.75,15.38-15.2,20.59-.64,.51-.64,1.48,0,1.98l19.99,15.59c.62,.48,.65,1.4,.07,1.93l-12.82,11.57c-.46,.41-1.14,.43-1.62,.05l-26.53-20.97c-.29-.23-.65-.31-1.01-.24-3.49,.7-7.22,1.05-11.2,1.05-10.53,0-19.94-2.59-28.23-7.76-8.29-5.17-14.69-12.55-19.21-22.12-4.52-9.57-6.81-20.61-6.87-33.12v-7.36c0-12.74,2.26-23.99,6.78-33.74,4.52-9.75,10.89-17.22,19.12-22.39,8.22-5.17,17.64-7.76,28.23-7.76s20.27,2.56,28.49,7.67c8.22,5.12,14.58,12.47,19.07,22.08,4.49,9.6,6.76,20.78,6.82,33.52v7.27Zm-22.8-6.82c0-14.72-2.75-25.88-8.26-33.48-5.51-7.6-13.28-11.4-23.33-11.4s-17.4,3.85-22.93,11.53c-5.53,7.69-8.36,18.53-8.48,32.53v7.63c0,14.12,2.77,25.16,8.3,33.12,5.53,7.96,13.29,11.94,23.29,11.94s17.87-3.83,23.29-11.49c5.41-7.66,8.12-18.85,8.12-33.57v-6.82Z"/>
  </g>
  <g>
    <path class="cls-2" d="M203.04,117.33H122.56c-5.23,0-9.47,4.24-9.47,9.47s4.24,9.47,9.47,9.47h80.48c5.23,0,9.47-4.24,9.47-9.47s-4.24-9.47-9.47-9.47Z"/>
    <path class="cls-2" d="M166.38,61.24c-13.28-.44-26.03,1.57-37.84,5.61-7.13,2.44-14.6-2.79-14.65-10.33,0-1.04-.04-2.08-.11-3.13C111.98,24.16,87.82,.83,58.55,.02,26.01-.87-.58,25.53,0,58c.53,29.57,24.07,54.07,53.59,55.79,.19,.01,.38,.02,.58,.03,7.55,.37,12.61,7.95,9.88,15-5.05,13.03-7.59,27.3-7.04,42.23,2.08,56.25,48.58,101.37,104.87,101.84,59.17,.5,107.24-47.56,106.76-106.72-.46-56.47-45.83-103.06-102.27-104.92Zm-93.86,33.03c-4-.53-7.42-3.39-8.68-7.23-.59-1.8-.67-3.6-.36-5.28,.14-.76-.2-1.52-.87-1.91l-25.89-14.8c-.65-.37-1.46-.3-2.04,.17-1.85,1.52-4.21,2.43-6.78,2.43-6.05,0-10.93-5.03-10.67-11.14,.22-5.31,4.49-9.76,9.78-10.18,2.88-.23,5.54,.68,7.58,2.32,.59,.47,1.4,.55,2.05,.17l25.91-15.05c.65-.38,.99-1.12,.87-1.87-.18-1.1-.19-2.26,0-3.44,.76-4.83,4.89-8.58,9.77-8.92,6.57-.46,11.99,5.02,11.42,11.61-.41,4.74-4.05,8.74-8.74,9.56-3.24,.56-6.31-.35-8.59-2.2-.59-.47-1.4-.55-2.05-.17l-25.91,15.04c-.66,.38-.99,1.13-.87,1.88,.09,.57,.14,1.15,.14,1.71s-.04,1.09-.12,1.61c-.11,.75,.22,1.5,.88,1.87l26.1,14.92c.63,.36,1.42,.3,2-.14,1.81-1.39,4.07-2.23,6.53-2.23h0s.01,.01,.01,.01c4.66,0,8.89,2.98,10.21,7.45,2.29,7.79-4.04,14.83-11.67,13.81ZM219.04,230.71H106.34c-3.48,0-6.31-2.82-6.31-6.31s2.83-6.31,6.31-6.31h112.7c3.48,0,6.31,2.82,6.31,6.31s-2.83,6.31-6.31,6.31Zm6.31-46.89c0,3.48-2.83,6.31-6.31,6.31H106.34c-3.48,0-6.31-2.83-6.31-6.31h0c0-3.48,2.83-6.31,6.31-6.31h112.7c3.48,0,6.31,2.83,6.31,6.31h0Zm-23.22-33.58H123.47c-12.94,0-23.44-10.5-23.44-23.44s10.49-23.44,23.44-23.44h78.66c12.94,0,23.44,10.5,23.44,23.44s-10.49,23.44-23.44,23.44Z"/>
  </g>
  <g>
    <path class="cls-2" d="M203.04,117.33H122.56c-5.23,0-9.47,4.24-9.47,9.47s4.24,9.47,9.47,9.47h80.48c5.23,0,9.47-4.24,9.47-9.47s-4.24-9.47-9.47-9.47Z"/>
    <path class="cls-2" d="M166.38,61.24c-13.28-.44-26.03,1.57-37.84,5.61-7.13,2.44-14.6-2.79-14.65-10.33,0-1.04-.04-2.08-.11-3.13C111.98,24.16,87.82,.83,58.55,.02,26.01-.87-.58,25.53,0,58c.53,29.57,24.07,54.07,53.59,55.79,.19,.01,.38,.02,.58,.03,7.55,.37,12.61,7.95,9.88,15-5.05,13.03-7.59,27.3-7.04,42.23,2.08,56.25,48.58,101.37,104.87,101.84,59.17,.5,107.24-47.56,106.76-106.72-.46-56.47-45.83-103.06-102.27-104.92Zm-93.86,33.03c-4-.53-7.42-3.39-8.68-7.23-.59-1.8-.67-3.6-.36-5.28,.14-.76-.2-1.52-.87-1.91l-25.89-14.8c-.65-.37-1.46-.3-2.04,.17-1.85,1.52-4.21,2.43-6.78,2.43-6.05,0-10.93-5.03-10.67-11.14,.22-5.31,4.49-9.76,9.78-10.18,2.88-.23,5.54,.68,7.58,2.32,.59,.47,1.4,.55,2.05,.17l25.91-15.05c.65-.38,.99-1.12,.87-1.87-.18-1.1-.19-2.26,0-3.44,.76-4.83,4.89-8.58,9.77-8.92,6.57-.46,11.99,5.02,11.42,11.61-.41,4.74-4.05,8.74-8.74,9.56-3.24,.56-6.31-.35-8.59-2.2-.59-.47-1.4-.55-2.05-.17l-25.91,15.04c-.66,.38-.99,1.13-.87,1.88,.09,.57,.14,1.15,.14,1.71s-.04,1.09-.12,1.61c-.11,.75,.22,1.5,.88,1.87l26.1,14.92c.63,.36,1.42,.3,2-.14,1.81-1.39,4.07-2.23,6.53-2.23h0s.01,.01,.01,.01c4.66,0,8.89,2.98,10.21,7.45,2.29,7.79-4.04,14.83-11.67,13.81ZM219.04,230.71H106.34c-3.48,0-6.31-2.82-6.31-6.31s2.83-6.31,6.31-6.31h112.7c3.48,0,6.31,2.82,6.31,6.31s-2.83,6.31-6.31,6.31Zm6.31-46.89c0,3.48-2.83,6.31-6.31,6.31H106.34c-3.48,0-6.31-2.83-6.31-6.31h0c0-3.48,2.83-6.31,6.31-6.31h112.7c3.48,0,6.31,2.83,6.31,6.31h0Zm-23.22-33.58H123.47c-12.94,0-23.44-10.5-23.44-23.44s10.49-23.44,23.44-23.44h78.66c12.94,0,23.44,10.5,23.44,23.44s-10.49,23.44-23.44,23.44Z"/>
  </g>
</svg>