<?xml version="1.0" encoding="UTF-8"?>
<svg id="Rün" xmlns="http://www.w3.org/2000/svg" viewBox="0 0 430.48 312.66">
  <defs>
    <style>
      .cls-1 {
        fill: #fff;
      }

      .cls-2 {
        fill: #1ed760;
      }
    </style>
  </defs>
  <path class="cls-2" d="M325.55,58.63c-36.85-.32-69.39,18.2-88.59,46.51-3.79,5.58-10.91,7.83-17.21,5.42l-79.02-30.15c-5.72-2.18-9.43-7.71-9.35-13.83,0-.29,0-.59,0-.88C131.39,28.38,100.29-1.66,62.59,.07,28.94,1.62,1.62,28.94,.07,62.6c-1.73,37.69,28.31,68.8,65.63,68.8,19.75,0,37.45-8.72,49.49-22.51,4.05-4.65,10.51-6.38,16.27-4.18l79.03,30.15c6.3,2.4,10.11,8.83,9.22,15.51-.62,4.62-.94,9.33-.94,14.12,0,6.19,.53,12.25,1.55,18.15,1.15,6.67-2.38,13.26-8.6,15.91l-16.14,6.89c-5.62,2.4-12.13,1.02-16.31-3.44-12.31-13.1-29.92-21.16-49.42-20.71-34.62,.79-62.98,28.85-64.12,63.46-1.25,37.95,29.69,68.98,67.6,67.89,34.79-1,63.05-29.53,63.74-64.33,.03-1.58,0-3.16-.07-4.71-.31-6.14,3.15-11.84,8.8-14.25l16.13-6.89c6.16-2.63,13.37-.74,17.34,4.65,19.27,26.22,50.32,43.23,85.35,43.23,58.96,0,106.67-48.21,105.84-107.37-.8-57.24-47.68-103.85-104.92-104.34Z"/>
  <g>
    <rect class="cls-1" x="261.85" y="174.95" width="125.32" height="12.62" rx="6.31" ry="6.31"/>
    <rect class="cls-1" x="261.85" y="215.53" width="125.32" height="12.62" rx="6.31" ry="6.31"/>
    <path class="cls-1" d="M363.95,100.8h-3.96s-48.18,0-48.18,0h-26.52c-12.95,0-23.44,10.5-23.44,23.44,0,12.94,10.5,23.44,23.44,23.44h3.96s48.18,0,48.18,0h26.52c12.95,0,23.44-10.5,23.44-23.44,0-12.94-10.5-23.44-23.44-23.44Zm.91,32.91h-27.6s-.01,0-.01,0h-32.65s-20.22,0-20.22,0c-5.23,0-9.47-4.24-9.47-9.47s4.24-9.47,9.47-9.47h27.6s.01,0,.01,0h32.65s20.22,0,20.22,0c5.23,0,9.47,4.24,9.47,9.47,0,5.23-4.24,9.47-9.47,9.47Z"/>
  </g>
  <path class="cls-1" d="M131.39,241.22c-5.75,0-10.45-1.83-14.11-5.49s-5.49-8.36-5.49-14.11,1.83-10.45,5.49-14.11c3.66-3.66,8.36-5.49,14.11-5.49,5.75,0,10.45,1.83,14.11,5.49,3.66,3.66,5.49,8.36,5.49,14.11s-1.83,10.45-5.49,14.11-8.36,5.49-14.11,5.49Zm-32.39,41.95c-5.21,0-9.43-4.22-9.43-9.43v-2.85c0-3.31,.83-6.14,2.48-8.49,1.66-2.35,3.79-4.14,6.4-5.36,5.84-2.61,11.43-4.57,16.79-5.88,5.36-1.31,10.74-1.96,16.14-1.96,5.4,0,10.76,.68,16.07,2.03,5.31,1.35,10.89,3.29,16.73,5.82,2.7,1.22,4.88,3.01,6.53,5.36,1.66,2.35,2.48,5.18,2.48,8.49v2.85c0,5.21-4.22,9.43-9.43,9.43H99.01Z"/>
  <path class="cls-1" d="M65.7,59.95c-5.75,0-10.45-1.83-14.11-5.49-3.66-3.66-5.49-8.36-5.49-14.11s1.83-10.45,5.49-14.11c3.66-3.66,8.36-5.49,14.11-5.49s10.45,1.83,14.11,5.49c3.66,3.66,5.49,8.36,5.49,14.11,0,5.75-1.83,10.45-5.49,14.11-3.66,3.66-8.36,5.49-14.11,5.49Zm-32.39,41.95c-5.21,0-9.43-4.22-9.43-9.43v-2.85c0-3.31,.83-6.14,2.48-8.49,1.66-2.35,3.79-4.14,6.4-5.36,5.84-2.61,11.43-4.57,16.79-5.88,5.36-1.31,10.74-1.96,16.14-1.96s10.76,.68,16.07,2.03c5.31,1.35,10.89,3.29,16.73,5.82,2.7,1.22,4.88,3.01,6.53,5.36,1.66,2.35,2.48,5.18,2.48,8.49v2.85c0,5.21-4.22,9.43-9.43,9.43H33.31Z"/>
</svg>