<?xml version="1.0" encoding="UTF-8"?>
<svg id="Ebene_1" data-name="Ebene 1" xmlns="http://www.w3.org/2000/svg" viewBox="0 0 880 880">
  <defs>
    <style>
      .cls-1 {
        fill: #1ed760;
      }
    </style>
  </defs>
  <path class="cls-1" d="M694.91,621.97c-27.74-.47-53.38,8.41-74,23.68-7.92,5.86-18.49,6.63-27.04,1.75l-290.46-166.06c-8.76-5.01-13.74-14.79-12.4-24.79,.71-5.31,1.08-10.73,1.08-16.23s-.4-11.4-1.18-16.93c-1.42-10.11,3.26-20.09,12.09-25.21l288.08-167.22c8.72-5.06,19.7-4.48,27.67,1.71,20.63,16.02,46.57,25.52,74.75,25.39,65.87-.31,119.84-54.06,120.41-119.93,.57-65.73-51.28-119.49-116.28-121.98-67.71-2.6-124.9,51.67-125.71,119.43-.07,6.22,.32,12.33,1.15,18.31,1.41,10.12-3.35,20.09-12.18,25.22l-288.09,167.22c-8.72,5.06-19.69,4.48-27.66-1.7-19.92-15.44-44.8-24.81-71.84-25.29-66.69-1.2-122.28,52.57-123.21,119.26s53.59,122.72,120.99,122.72c28.19,0,54.12-9.64,74.68-25.8,8.01-6.3,19.03-7.13,27.87-2.07l287.47,164.35c9.1,5.2,13.9,15.51,12.24,25.86-1.18,7.34-1.69,14.9-1.49,22.62,1.76,65.86,56.64,118.52,122.52,117.68,66.47-.84,120.02-55.28,119.43-122.08-.58-65.29-53.63-118.79-118.91-119.89Zm-37.91-499.2l3.36-25.2c1.12-7.98,4.76-14.6,10.92-19.85,6.16-5.25,13.37-7.88,21.63-7.88s15.47,2.63,21.63,7.88c6.16,5.25,9.8,11.87,10.92,19.85l3.36,25.2c.56,3.78-.46,7.11-3.05,9.98-2.59,2.87-5.78,4.31-9.56,4.31h-46.62c-3.78,0-6.97-1.44-9.56-4.31-2.59-2.87-3.61-6.2-3.05-9.98Zm-31.29,61.74c0-5.32,1.33-9.87,3.99-13.65,2.66-3.78,6.09-6.65,10.29-8.61,9.38-4.2,18.38-7.35,26.99-9.45,8.61-2.1,17.26-3.15,25.94-3.15s17.29,1.09,25.83,3.26c8.54,2.17,17.5,5.29,26.88,9.35,4.34,1.96,7.84,4.83,10.5,8.61,2.66,3.78,3.99,8.33,3.99,13.65v19.74h-134.4v-19.74ZM233.64,503.99H108.31v-12.62h125.32v12.62Zm0-40.57H108.31v-12.62h125.32v12.62Zm-23.22-39.9h-77.91c-12.22,0-22.8-9.14-23.88-21.31-1.23-13.91,9.7-25.57,23.35-25.57h77.91c12.22,0,22.8,9.14,23.88,21.31,1.23,13.91-9.7,25.57-23.35,25.57Zm459.06,261.38c6.05-6.05,13.84-9.08,23.35-9.08s17.3,3.03,23.35,9.08c6.05,6.05,9.08,13.84,9.08,23.35s-3.03,17.3-9.08,23.35-13.84,9.08-23.35,9.08-17.3-3.03-23.35-9.08-9.08-13.84-9.08-23.35,3.03-17.3,9.08-23.35Zm92.53,125.17h-138.36v-20.32c0-5.48,1.37-10.16,4.11-14.05,2.74-3.89,6.27-6.85,10.59-8.86,9.66-4.32,18.92-7.57,27.78-9.73,8.86-2.16,17.76-3.24,26.7-3.24s17.8,1.12,26.59,3.35c8.79,2.23,18.02,5.44,27.67,9.62,4.47,2.02,8.07,4.97,10.81,8.86,2.74,3.89,4.11,8.58,4.11,14.05v20.32Z"/>
  <path class="cls-1" d="M211.32,390.61h-80.24c-5.23,0-9.47,4.24-9.47,9.47s4.24,9.47,9.47,9.47h80.24c5.23,0,9.47-4.24,9.47-9.47s-4.24-9.47-9.47-9.47Z"/>
  <path class="cls-1" d="M740.58,173.59c-8.96-4.34-17.15-7.32-24.57-8.93s-15.12-2.42-23.1-2.42-15.75,.8-23.31,2.42c-7.56,1.61-15.75,4.59-24.57,8.93-1.96,.98-3.57,2.49-4.83,4.52-1.26,2.03-1.89,4.17-1.89,6.41v7.14h109.2v-7.14c0-2.24-.67-4.38-2-6.41-1.33-2.03-2.98-3.54-4.94-4.52Z"/>
  <path class="cls-1" d="M692.83,727.71c5.62,0,10.27-1.84,13.94-5.51s5.51-8.32,5.51-13.94-1.84-10.27-5.51-13.94-8.32-5.51-13.94-5.51-10.27,1.84-13.94,5.51-5.51,8.32-5.51,13.94,1.84,10.27,5.51,13.94,8.32,5.51,13.94,5.51Z"/>
  <path class="cls-1" d="M713.07,99.46c-.7-4.9-2.98-8.96-6.83-12.18-3.85-3.22-8.3-4.83-13.34-4.83s-9.49,1.61-13.34,4.83c-3.85,3.22-6.13,7.28-6.83,12.18l-3.36,24.99h47.04l-3.36-24.99Z"/>
  <path class="cls-1" d="M741.9,778.51c-9.22-4.47-17.66-7.53-25.29-9.19-7.64-1.66-15.57-2.49-23.78-2.49s-16.21,.83-24,2.49-16.21,4.72-25.29,9.19c-2.02,1.01-3.68,2.56-4.97,4.65-1.3,2.09-1.95,4.29-1.95,6.59v7.35h112.42v-7.35c0-2.31-.68-4.5-2.05-6.59-1.37-2.09-3.06-3.64-5.08-4.65Z"/>
</svg>